REM DIRINDEX 1\2\3,1\2\4,1\2\5,1\2\6
REM DIRNAME cjc157,folder01,folder02,folder03,folder04,folder05
TITLE ""
FILE "181 181.mp3" MP3
  TRACK 01 AUDIO
    TITLE "0:"
    INDEX 01 00:00:00
  TRACK 02 AUDIO
    TITLE "3:cjc157_6559"
    INDEX 01 00:00:11
  TRACK 03 AUDIO
    TITLE "0:"
    INDEX 01 00:01:58
  TRACK 04 AUDIO
    TITLE "4:cjc157_6560"
    INDEX 01 00:02:26
  TRACK 05 AUDIO
    TITLE "0:"
    INDEX 01 00:03:49
  TRACK 06 AUDIO
    TITLE "5:cjc157_6561"
    INDEX 01 00:04:17
  TRACK 07 AUDIO
    TITLE "0:"
    INDEX 01 00:06:55
  TRACK 08 AUDIO
    TITLE "3:cjc157_6562"
    INDEX 01 00:07:31
  TRACK 09 AUDIO
    TITLE "0:"
    INDEX 01 00:08:44
  TRACK 10 AUDIO
    TITLE "4:cjc157_6563"
    INDEX 01 00:09:08
  TRACK 11 AUDIO
    TITLE "0:"
    INDEX 01 00:10:51
  TRACK 12 AUDIO
    TITLE "5:cjc157_6564"
    INDEX 01 00:11:21
  TRACK 13 AUDIO
    TITLE "0:"
    INDEX 01 00:15:32
  TRACK 14 AUDIO
    TITLE "3:cjc157_6565"
    INDEX 01 00:16:06
  TRACK 15 AUDIO
    TITLE "0:"
    INDEX 01 00:17:45
  TRACK 16 AUDIO
    TITLE "4:cjc157_6566"
    INDEX 01 00:18:19
  TRACK 17 AUDIO
    TITLE "0:"
    INDEX 01 00:19:52
  TRACK 18 AUDIO
    TITLE "5:cjc157_6567"
    INDEX 01 00:20:18
  TRACK 19 AUDIO
    TITLE "0:"
    INDEX 01 00:23:63
  TRACK 20 AUDIO
    TITLE "3:cjc157_6568"
    INDEX 01 00:24:35
  TRACK 21 AUDIO
    TITLE "0:"
    INDEX 01 00:25:60
  TRACK 22 AUDIO
    TITLE "4:cjc157_6569"
    INDEX 01 00:26:32
  TRACK 23 AUDIO
    TITLE "0:"
    INDEX 01 00:27:71
  TRACK 24 AUDIO
    TITLE "5:cjc157_6570"
    INDEX 01 00:28:43
  TRACK 25 AUDIO
    TITLE "0:"
    INDEX 01 00:32:72
  TRACK 26 AUDIO
    TITLE "3:cjc157_6571"
    INDEX 01 00:33:46
  TRACK 27 AUDIO
    TITLE "0:"
    INDEX 01 00:35:19
  TRACK 28 AUDIO
    TITLE "4:cjc157_6572"
    INDEX 01 00:35:70
  TRACK 29 AUDIO
    TITLE "0:"
    INDEX 01 00:37:30
  TRACK 30 AUDIO
    TITLE "5:cjc157_6573"
    INDEX 01 00:38:12
  TRACK 31 AUDIO
    TITLE "0:"
    INDEX 01 00:40:26
  TRACK 32 AUDIO
    TITLE "3:cjc157_6574"
    INDEX 01 00:40:73
  TRACK 33 AUDIO
    TITLE "0:"
    INDEX 01 00:42:25
  TRACK 34 AUDIO
    TITLE "4:cjc157_6575"
    INDEX 01 00:42:70
  TRACK 35 AUDIO
    TITLE "0:"
    INDEX 01 00:44:30
  TRACK 36 AUDIO
    TITLE "5:cjc157_6576"
    INDEX 01 00:45:08
  TRACK 37 AUDIO
    TITLE "0:"
    INDEX 01 00:48:55
  TRACK 38 AUDIO
    TITLE "3:cjc157_6577"
    INDEX 01 00:49:31
  TRACK 39 AUDIO
    TITLE "0:"
    INDEX 01 00:50:48
  TRACK 40 AUDIO
    TITLE "4:cjc157_6578"
    INDEX 01 00:51:18
  TRACK 41 AUDIO
    TITLE "0:"
    INDEX 01 00:52:57
  TRACK 42 AUDIO
    TITLE "5:cjc157_6579"
    INDEX 01 00:53:29
  TRACK 43 AUDIO
    TITLE "0:"
    INDEX 01 00:56:27
  TRACK 44 AUDIO
    TITLE "3:cjc157_6580"
    INDEX 01 00:56:72
  TRACK 45 AUDIO
    TITLE "0:"
    INDEX 01 00:58:36
  TRACK 46 AUDIO
    TITLE "4:cjc157_6581"
    INDEX 01 00:59:04
  TRACK 47 AUDIO
    TITLE "0:"
    INDEX 01 01:00:39
  TRACK 48 AUDIO
    TITLE "5:cjc157_6582"
    INDEX 01 01:01:11
  TRACK 49 AUDIO
    TITLE "0:"
    INDEX 01 01:03:59
  TRACK 50 AUDIO
    TITLE "5:cjc157_6583"
    INDEX 01 01:04:33
  TRACK 51 AUDIO
    TITLE "0:"
    INDEX 01 01:08:27
  TRACK 52 AUDIO
    TITLE "3:cjc157_6584"
    INDEX 01 01:08:74
  TRACK 53 AUDIO
    TITLE "0:"
    INDEX 01 01:10:67
  TRACK 54 AUDIO
    TITLE "4:cjc157_6585"
    INDEX 01 01:11:33
  TRACK 55 AUDIO
    TITLE "0:"
    INDEX 01 01:13:14
  TRACK 56 AUDIO
    TITLE "5:cjc157_6586"
    INDEX 01 01:13:59
  TRACK 57 AUDIO
    TITLE "0:"
    INDEX 01 01:16:61
  TRACK 58 AUDIO
    TITLE "5:cjc157_6587"
    INDEX 01 01:17:37
  TRACK 59 AUDIO
    TITLE "0:"
    INDEX 01 01:20:57
  TRACK 60 AUDIO
    TITLE "3:cjc157_6588"
    INDEX 01 01:21:27
  TRACK 61 AUDIO
    TITLE "0:"
    INDEX 01 01:23:26
  TRACK 62 AUDIO
    TITLE "4:cjc157_6589"
    INDEX 01 01:23:73
  TRACK 63 AUDIO
    TITLE "0:"
    INDEX 01 01:27:32
  TRACK 64 AUDIO
    TITLE "5:cjc157_6590"
    INDEX 01 01:28:06
  TRACK 65 AUDIO
    TITLE "0:"
    INDEX 01 01:32:33
